<?xml version="1.0" standalone="no"?>
<!DOCTYPE svg PUBLIC "-//W3C//DTD SVG 20010904//EN"
 "http://www.w3.org/TR/2001/REC-SVG-20010904/DTD/svg10.dtd">
<svg version="1.0" xmlns="http://www.w3.org/2000/svg"
 width="512.000000pt" height="512.000000pt" viewBox="0 0 512.000000 512.000000"
 preserveAspectRatio="xMidYMid meet">

<g transform="translate(0.000000,512.000000) scale(0.100000,-0.100000)"
fill="#000000" stroke="none">
<path d="M1785 5113 c-458 -27 -896 -225 -1225 -553 -289 -290 -467 -640 -535
-1055 -23 -136 -23 -434 0 -570 69 -422 242 -762 535 -1056 294 -294 647 -473
1070 -540 124 -20 448 -17 575 5 303 52 602 177 817 342 31 24 63 44 70 44 7
0 78 -65 157 -144 l144 -144 -37 -43 c-67 -78 -67 -156 -1 -227 l34 -37 298
298 298 298 -37 34 c-71 66 -149 66 -227 -1 l-43 -37 -144 144 c-79 79 -144
150 -144 157 0 7 20 39 44 70 168 219 299 538 348 847 17 108 17 438 -1 545
-67 423 -245 775 -540 1071 -290 289 -646 470 -1051 533 -102 15 -307 25 -405
19z m420 -363 c320 -67 589 -213 811 -442 98 -100 159 -178 216 -273 159 -267
228 -515 228 -818 0 -762 -545 -1409 -1295 -1537 -132 -23 -359 -27 -478 -9
-349 52 -655 207 -899 455 -379 385 -529 928 -402 1462 65 278 202 520 414
732 245 245 536 392 882 445 131 20 391 13 523 -15z"/>
</g>
</svg>
